# xmcd
#
# Track frame offsets:
#  150
#  18195
#  34619
#  52177
#  63401
#  82127
#  97407
#  121519
#  139487
#  162678
#  187703
#  205898
#  228225
#  249285
#  270759
#
# Disc length: 3772 seconds
#
# Revision: 1
# Processed by: cddbd v1.5.1PL0 Copyright (c) Steve Scherf et al.
# Submitted via: Collectorz.com_Music_Collector 6.9
#
DISCID=c90eba0f
DTITLE=Henry Correy - The Correydors - Heat Of The Moment
DYEAR=2003
DGENRE=Blues -  Blues Electric
TTITLE0=Double Dealin' Mama
TTITLE1=That Can't Be
TTITLE2=Cheatin'
TTITLE3=Smokin'
TTITLE4=Too Many Lonely Days
TTITLE5=Would I Lie To you
TTITLE6=Drinkin' Woman Blues
TTITLE7=Early Mornin' Hours
TTITLE8=The Silence Says It All
TTITLE9=Before Tonight
TTITLE10=Too Little Too Late
TTITLE11=Isn't It Strange
TTITLE12=Hopes and Dreams
TTITLE13=Talk Too Much
TTITLE14=Heat Of The Moment
EXTD=
EXTT0=
EXTT1=
EXTT2=
EXTT3=
EXTT4=
EXTT5=
EXTT6=
EXTT7=
EXTT8=
EXTT9=
EXTT10=
EXTT11=
EXTT12=
EXTT13=
EXTT14=
PLAYORDER=
